<?xml version="1.0" encoding="utf-8"?>
<!-- Generator: Adobe Illustrator 28.0.0, SVG Export Plug-In . SVG Version: 6.00 Build 0)  -->
<svg version="1.1" id="Ebene_1" xmlns="http://www.w3.org/2000/svg" xmlns:xlink="http://www.w3.org/1999/xlink" x="0px" y="0px"
	 viewBox="0 0 978.4 350" style="enable-background:new 0 0 978.4 350;" xml:space="preserve">
<style type="text/css">
	.st0{fill:#FB1357;}
	.st1{fill:#25A7FB;}
	.st2{fill:#3DFB84;}
	.st3{fill:#FFFFFF;}
</style>
<g>
	<path class="st0" d="M175,265V85c0-5.5-4.5-10-10-10c-5.5,0-10,4.5-10,10v180c0,5.5,4.5,10,10,10C170.5,275,175,270.5,175,265z"/>
	<path class="st1" d="M205,100c-5.5,0-10,4.5-10,10v130c0,5.5,4.5,10,10,10s10-4.5,10-10V110C215,104.5,210.5,100,205,100z"/>
	<path class="st2" d="M245,125c-5.5,0-10,4.5-10,10v80c0,5.5,4.5,10,10,10s10-4.5,10-10v-80C255,129.5,250.5,125,245,125z"/>
	<path class="st2" d="M85,225c5.5,0,10-4.5,10-10v-80c0-5.5-4.5-10-10-10c-5.5,0-10,4.5-10,10v80C75,220.5,79.5,225,85,225z"/>
	<path class="st1" d="M125,100c-5.5,0-10,4.5-10,10v130c0,5.5,4.5,10,10,10c5.5,0,10-4.5,10-10V110C135,104.5,130.5,100,125,100z"/>
</g>
<g>
	<path class="st3" d="M363.8,213.8c-6.8,7.4-17.5,10.2-27.2,10.2c-8.5,0-17.3-1.4-24.9-5.1c-4.5-2.3-7.9-6.2-7.9-11.6
		c0-4.8,4.2-9.6,9.3-9.6c2,0,3.7,0.3,5.4,0.8l7.6,2.8c3.1,1.4,6.8,2.3,10.5,2.3c5.7,0,11.9-3.4,11.9-9.9c0-2.8-1.1-5.4-3.4-6.8
		c-4.5-2.8-10.2-4.2-15.3-5.7c-14.4-4.2-25.5-9.1-25.5-26.3c0-19,16.7-30.3,34.2-30.3c8.5,0,26.6,2.3,26.6,13.3
		c0,5.9-4.2,10.8-9.9,10.8c-1.1,0-2.3-0.3-3.4-0.6l-4-1.4c-3.1-1.1-6.5-1.7-9.6-1.7c-4.8,0-10.8,2.3-10.8,7.6c0,4.8,4.8,7.1,8.8,8.2
		l5.7,1.4c15.3,4.2,29.7,10.8,29.7,28.3C371.8,198.8,369.5,207.6,363.8,213.8z"/>
	<path class="st3" d="M417.3,222.9c-6.5,0-11.3-2.3-16.1-6.2v22.6c0,6.2-3.7,11.6-10.5,11.6c-6.5,0-10.5-5.4-10.5-11.6v-78.1
		c0-6.2,2.8-12.4,9.9-12.4c5.7,0,8.2,3.1,10.2,7.9c4.5-5.1,10.2-8.2,17.3-8.2c7.9,0,15,2.3,20.7,7.9c7.4,7.1,11.3,17.6,11.3,27.7
		C449.6,203.4,438.5,222.9,417.3,222.9z M415.3,167.7c-9.9,0-15,9.1-15,17.8c0,8.8,5.1,18.1,15,18.1c8.8,0,13.6-9.9,13.6-18.1
		C428.9,177.6,424.1,167.7,415.3,167.7z"/>
	<path class="st3" d="M468,142c-6.8,0-12.2-5.7-12.2-12.2c0-6.5,5.4-12.2,12.2-12.2c6.5,0,11.9,5.7,11.9,12.2
		C479.9,136.3,474.5,142,468,142z M467.7,222.6c-6.5,0-10.5-5.7-10.5-11.9v-50.4c0-6.2,3.7-11.6,10.5-11.6c6.5,0,10.5,5.4,10.5,11.6
		v50.4C478.2,217.2,474.5,222.6,467.7,222.6z"/>
	<path class="st3" d="M544.1,222.6c-6.5,0-10.5-5.7-10.5-11.9v-31.4c0-7.1-4-13-11.9-13c-6.5,0-11.3,5.9-11.3,12.2v32.3
		c0,6.5-3.7,11.9-10.5,11.9c-6.5,0-10.5-5.7-10.5-11.9v-49.8c0-6.2,3.4-11.9,10.2-12.2h0.6c4.5,0,7.9,3.1,9.6,7.4
		c5.7-5.4,11-7.6,19-7.6c6.5,0,13,1.7,18.1,6.2c6.2,5.4,7.6,11.9,7.6,19.8v36.2C554.6,217.2,550.9,222.6,544.1,222.6z"/>
	<path class="st3" d="M622.8,213.8c-6.8,7.4-17.5,10.2-27.2,10.2c-8.5,0-17.3-1.4-24.9-5.1c-4.5-2.3-7.9-6.2-7.9-11.6
		c0-4.8,4.2-9.6,9.3-9.6c2,0,3.7,0.3,5.4,0.8l7.6,2.8c3.1,1.4,6.8,2.3,10.5,2.3c5.7,0,11.9-3.4,11.9-9.9c0-2.8-1.1-5.4-3.4-6.8
		c-4.5-2.8-10.2-4.2-15.3-5.7c-14.4-4.2-25.5-9.1-25.5-26.3c0-19,16.7-30.3,34.2-30.3c8.5,0,26.6,2.3,26.6,13.3
		c0,5.9-4.2,10.8-9.9,10.8c-1.1,0-2.3-0.3-3.4-0.6l-4-1.4c-3.1-1.1-6.5-1.7-9.6-1.7c-4.8,0-10.8,2.3-10.8,7.6c0,4.8,4.8,7.1,8.8,8.2
		l5.7,1.4c15.3,4.2,29.7,10.8,29.7,28.3C630.7,198.8,628.4,207.6,622.8,213.8z"/>
	<path class="st3" d="M694.1,222.6c-6.5,0-10.5-5.7-10.5-11.9v-30.3c0-7.4-3.1-14.1-11.9-14.1c-6.8,0-11.6,6.2-11.6,12.7v31.7
		c0,6.5-3.7,11.9-10.5,11.9c-6.5,0-10.5-5.7-10.5-11.9v-81.5c0-6.2,3.7-11.6,10.5-11.6c6.5,0,10.5,5.4,10.5,11.6v25.2
		c5.7-3.4,11.9-5.9,18.7-5.9s13.6,2,18.7,6.8c5.7,5.4,7.1,11.9,7.1,19.5v35.9C704.6,217.2,700.9,222.6,694.1,222.6z"/>
	<path class="st3" d="M771.1,222.6c-5.1,0-8.5-4-9.9-8.5c-5.1,5.9-9.6,8.8-17.5,8.8c-7.4,0-14.7-3.1-20.4-7.9
		c-8.5-7.6-12.2-18.4-12.2-29.4c0-10.8,3.1-20.1,10.8-27.7c5.7-5.7,13.3-9.6,21.5-9.6c7.6,0,12.5,2.8,17.8,8.2
		c2-4.2,5.1-7.6,10.2-7.6c5.9,0,10.5,4.8,10.5,10.8v50.7C781.8,216.7,777.9,222.6,771.1,222.6z M745.6,167.7
		c-9.3,0-13.9,9.3-13.9,17.6c0,8.5,4,18.1,13.9,18.1c9.6,0,15-8.5,15-17.3C760.6,176.5,756.4,167.7,745.6,167.7z"/>
	<path class="st3" d="M826.8,168.6c-3.7,1.4-7.6,2.8-11,5.4c-2.5,2-3.1,5.1-3.1,8.5v28.3c0,6.5-3.7,11.9-10.5,11.9
		c-6.5,0-10.5-5.7-10.5-11.9v-50.1c0-2.8,0.6-5.9,2.5-8.2c2-2.3,4.8-3.7,7.6-3.7c5.1,0,8.5,2.8,10.8,7.4c3.7-3.7,8.2-7.6,13.9-7.6
		c5.9,0,11,4.2,11,9.9C837.6,165.2,832.2,166.9,826.8,168.6z"/>
	<path class="st3" d="M894.3,192.3h-38.8c1.4,3.7,3.1,6.8,6.2,9.1c2.8,2.3,6.2,3.4,9.9,3.4c4,0,7.9-1.1,11.6-2.8l5.9-3.1
		c1.1-0.6,2.5-0.8,4-0.8h0.3c4.5,0,8.8,4.2,8.8,8.5c0,4.8-4.8,8.5-8.5,10.5c-7.1,4.2-15,5.9-23.2,5.9c-11.3,0-22.1-4.5-29.4-13.3
		c-5.9-7.4-7.9-15.3-7.9-24.3c0-20.1,15.6-37.1,35.9-37.1c19.5,0,34.2,15.8,34.2,34.8C903.4,189.5,900.8,192.3,894.3,192.3z
		 M868.8,165.2c-7.9,0-11.6,6.2-13.9,13h28C881,171.1,877.3,165.2,868.8,165.2z"/>
</g>
</svg>
